<svg width="320" height="1024" xmlns="http://www.w3.org/2000/svg"><g fill="none" fill-rule="evenodd" stroke="#FFF"><circle stroke-width="20" cx="160" cy="512" r="150"/><path d="M122.597 396.298c-11.828 2.833-24.148 12.558-36.957 29.177-12.81 16.618-18.643 40.718-17.5 72.298 4.679 13.894 8.485 21.552 11.418 22.973 2.205 1.068 5.76 2.627 8.758 4.102 2.008.988 3.443 2.052 4.649 3.289.588.604.588-.921 4.588 6.656.98 1.858 0 3.21-.08 7.653-.086 4.802-4.84 12.427-14.262 22.875v3.01l8.947 9.963 3.14 1.167c4.09-2.782 7.022-4.955 8.796-6.52 2.661-2.348 4.4-2.587 5.263-2.348.542.15 3.958.411 4.428 1.011.402.514.873.933 1.28 1.337.55.545.984 1.063.984 1.752 0 .894.899 2.368.899 7.71 0 5.34 0 9.544 1.037 13.108 1.038 3.563.529 2.179 1.592 4.771.97 2.365 2.268 5.52 3.908 8.531 4.031 7.397 7.386 13.513 11.238 19.274.195.29 1.335 1.91 1.335 1.91h3.193c.359.003 1.068.026 1.707-.137.531-.136 1.114-.328 1.255-.94.783-3.393.783-9.743.86-20.107.052-6.797-.252-20.571-.91-41.323-2.067-1.446-3.737-2.7-5.01-3.762-1.91-1.594-3.191-1.999-4.12-3.912-.042-.085-1.516-2.15-2.11-3.307-.643-1.254-1.208-2.756-1.208-3.09 0-.877.16-1.623.322-1.87.343-.521 1.067-1.448 2.195-1.832.715-.242 1.719-.125 2.491 0 1.265.206 3.343.817 6.235 1.833 2.062.76 3.623 1.562 4.684 2.405 1.177.935 3.751 2.913 4.264 3.271.512.358 3.899 4.132 4.823 4.79 1.635 1.163 3.18 1.712 4.16 1.712.148 0 .148-9.922 0-29.765l-4.16-3.878-2.77-2.87c-3.622-2.328-6.114-3.972-7.477-4.931-3.15-2.216-6.052-3.777-7.329-4.394-1.277-.617-4.871-2.517-9.694-5.503a121.12 121.12 0 01-8.815-6.047c-3.99-3.03-6.758-5.656-7.366-7.113-1.038-2.487-10.32-11.997-10.32-26.056 0-13.395 8.233-25.541 17.027-35.222 5.755-6.335 10.266-10.626 13.533-12.875 1.118-.77-7.119-30.514-2.835-14.25 4.284 16.265-.909-5.026-2.184-8.395-.951-2.516-.9-2.368-2.047-6.243-.12-.403-.645-.03-.967 0-.204.019-.5.056-.888.112z" fill="#FFF"/><path d="M196.203 396.298c12.088 2.833 24.678 12.558 37.77 29.177 13.09 16.618 19.052 40.718 17.883 72.298-4.78 13.894-8.67 21.552-11.668 22.973-2.253 1.068-5.886 2.627-8.95 4.102-2.052.988-3.52 2.052-4.751 3.289-.602.604-.602-.921-4.69 6.656-1.002 1.858 0 3.21.082 7.653.088 4.802 4.947 12.427 14.576 22.875v3.01l-9.144 9.963-3.21 1.167c-4.18-2.782-7.175-4.955-8.988-6.52-2.72-2.348-4.497-2.587-5.379-2.348-.554.15-4.045.411-4.525 1.011-.411.514-.892.933-1.309 1.337-.56.545-1.005 1.063-1.005 1.752 0 .894-.918 2.368-.918 7.71 0 5.34 0 9.544-1.06 13.108-1.061 3.563-.541 2.179-1.627 4.771-.991 2.365-2.318 5.52-3.994 8.531-4.12 7.397-7.55 13.513-11.486 19.274-.199.29-1.363 1.91-1.363 1.91h-3.264c-.367.003-1.092.026-1.745-.137-.543-.136-1.138-.328-1.282-.94-.8-3.393-.8-9.743-.88-20.107-.052-6.797.258-20.571.932-41.323 2.111-1.446 3.818-2.7 5.119-3.762 1.952-1.594 3.262-1.999 4.211-3.912.042-.085 1.55-2.15 2.156-3.307.657-1.254 1.234-2.756 1.234-3.09 0-.877-.163-1.623-.328-1.87-.351-.521-1.09-1.448-2.244-1.832-.73-.242-1.756-.125-2.546 0-1.292.206-3.416.817-6.372 1.833-2.107.76-3.703 1.562-4.787 2.405-1.202.935-3.833 2.913-4.357 3.271-.523.358-3.984 4.132-4.93 4.79-1.67 1.163-3.249 1.712-4.251 1.712-.15 0-.15-9.922 0-29.765l4.251-3.878 2.832-2.87c3.701-2.328 6.248-3.972 7.641-4.931 3.22-2.216 6.185-3.777 7.49-4.394 1.305-.617 4.978-2.517 9.907-5.503a123.926 123.926 0 009.01-6.047c4.077-3.03 6.906-5.656 7.527-7.113 1.061-2.487 10.546-11.997 10.546-26.056 0-13.395-8.413-25.541-17.4-35.222-5.882-6.335-10.492-10.626-13.831-12.875-1.142-.77 7.275-30.514 2.897-14.25-4.378 16.265.93-5.026 2.232-8.395.973-2.516.92-2.368 2.093-6.243.121-.403.658-.03.988 0 .208.019.51.056.907.112z" fill="#FFF"/></g></svg>