<svg width="1024" height="1024" xmlns="http://www.w3.org/2000/svg"><g fill="none" fill-rule="evenodd"><circle stroke="#FFF" stroke-width="20" cx="512" cy="512" r="502"/><path d="M627.81 142.95c38.605 9.03 78.811 40.036 120.618 93.016 41.808 52.98 60.845 129.81 57.113 230.49-15.269 44.294-27.69 68.707-37.265 73.239-7.194 3.405-18.795 8.373-28.583 13.078-6.552 3.15-11.236 6.54-15.171 10.484-1.921 1.926-1.921-2.937-14.975 21.221-3.2 5.923 0 10.232.26 24.397.282 15.308 15.798 39.616 46.548 72.926v9.595l-29.2 31.765-10.25 3.718c-13.348-8.867-22.917-15.795-28.707-20.785-8.684-7.486-14.36-8.247-17.175-7.486-1.772.479-12.92 1.312-14.453 3.224-1.313 1.638-2.849 2.973-4.179 4.262-1.791 1.736-3.21 3.389-3.21 5.587 0 2.849-2.933 7.549-2.933 24.575 0 17.027 0 30.43-3.386 41.791-3.387 11.36-1.726 6.946-5.196 15.212-3.164 7.539-7.4 17.6-12.754 27.196-13.158 23.582-24.108 43.081-36.68 61.446-.634.927-4.354 6.091-4.354 6.091h-10.422c-1.171.008-3.488.081-5.573-.438-1.733-.432-3.635-1.047-4.096-2.998-2.554-10.816-2.554-31.06-2.808-64.1-.167-21.67.825-65.582 2.974-131.74 6.744-4.61 12.194-8.608 16.35-11.994 6.232-5.08 10.415-6.371 13.449-12.472.134-.27 4.947-6.855 6.883-10.543 2.1-3.997 3.942-8.784 3.942-9.852 0-2.793-.52-5.172-1.049-5.957-1.12-1.664-3.482-4.62-7.164-5.841-2.335-.775-5.61-.401-8.131 0-4.128.656-10.912 2.603-20.35 5.84-6.729 2.427-11.825 4.983-15.286 7.668-3.842 2.98-12.243 9.288-13.915 10.43-1.672 1.141-12.726 13.173-15.744 15.27-5.336 3.708-10.376 5.457-13.578 5.457-.48 0-.48-31.63 0-94.89l13.578-12.364 9.043-9.148c11.82-7.423 19.953-12.664 24.403-15.722 10.28-7.066 19.75-12.04 23.918-14.008 4.168-1.968 15.898-8.026 31.64-17.543 9.192-5.558 20.224-12.937 28.77-19.278 13.024-9.663 22.057-18.034 24.04-22.677 3.389-7.928 33.68-38.247 33.68-83.068 0-42.705-26.867-81.426-55.57-112.29-18.782-20.195-33.504-33.877-44.168-41.045-3.648-2.453 23.235-97.28 9.252-45.428-13.983 51.852 2.967-16.026 7.128-26.766 3.106-8.02 2.939-7.549 6.682-19.902.39-1.284 2.104-.096 3.156 0 .665.06 1.631.18 2.897.357z" stroke="#FF5600" fill="#FF5600"/><path d="M392.591 142.95c-37.826 9.03-77.22 40.036-118.182 93.016-40.963 52.98-59.616 129.81-55.96 230.49 14.961 44.294 27.132 68.707 36.512 73.239 7.05 3.405 18.416 8.373 28.006 13.078 6.42 3.15 11.01 6.54 14.865 10.484 1.882 1.926 1.882-2.937 14.672 21.221 3.136 5.923 0 10.232-.255 24.397-.275 15.308-15.478 39.616-45.607 72.926v9.595l28.61 31.765 10.043 3.718c13.079-8.867 22.454-15.795 28.127-20.785 8.509-7.486 14.07-8.247 16.828-7.486 1.736.479 12.66 1.312 14.161 3.224 1.287 1.638 2.791 2.973 4.094 4.262 1.756 1.736 3.146 3.389 3.146 5.587 0 2.849 2.874 7.549 2.874 24.575 0 17.027 0 30.43 3.318 41.791 3.317 11.36 1.69 6.946 5.09 15.212 3.1 7.539 7.251 17.6 12.497 27.196 12.891 23.582 23.62 43.081 35.938 61.446.622.927 4.267 6.091 4.267 6.091h10.211c1.148.008 3.417.081 5.46-.438 1.699-.432 3.562-1.047 4.014-2.998 2.502-10.816 2.502-31.06 2.751-64.1.164-21.67-.808-65.582-2.914-131.74-6.608-4.61-11.948-8.608-16.019-11.994-6.106-5.08-10.206-6.371-13.177-12.472-.132-.27-4.848-6.855-6.745-10.543-2.057-3.997-3.862-8.784-3.862-9.852 0-2.793.51-5.172 1.027-5.957 1.099-1.664 3.412-4.62 7.02-5.841 2.288-.775 5.496-.401 7.967 0 4.045.656 10.69 2.603 19.938 5.84 6.594 2.427 11.586 4.983 14.978 7.668 3.764 2.98 11.996 9.288 13.634 10.43 1.638 1.141 12.468 13.173 15.426 15.27 5.228 3.708 10.166 5.457 13.303 5.457.47 0 .915-31.924 1.333-95.772l-14.636-11.482-8.861-9.148c-11.58-7.423-19.55-12.664-23.91-15.722-10.073-7.066-19.35-12.04-23.435-14.008-4.084-1.968-15.577-8.026-31-17.543-9.007-5.558-19.816-12.937-28.19-19.278-12.76-9.663-21.61-18.034-23.554-22.677-3.32-7.928-33-38.247-33-83.068 0-42.705 26.325-81.426 54.449-112.29 18.402-20.195 32.827-33.877 43.275-41.045 3.575-2.453-22.765-97.28-9.065-45.428 13.7 51.852-2.907-16.026-6.984-26.766-3.043-8.02-2.88-7.549-6.547-19.902-.382-1.284-2.062-.096-3.092 0-.652.06-1.599.18-2.839.357z" stroke="#FF5600" fill="#FF5600"/></g></svg>